# xmcd
# 
# Track frame offsets:
#     150
#     20607
#     35390
#     62065
#     81672
#     97902
#     114387
#     136940
#     159982
#     178357
# 
# Disc length: 2597
# 
# Revision: 0
# Processed by: cddbd v1.5.2PL0 Copyright (c) Steve Scherf et al.
# Submitted via: fre:ac v1.0.27
# 
DISCID=800a230a
DTITLE=SENSATIONAL NIGHTINGALES - GODS WORD THROUGH SONG
DYEAR=1999
DGENRE=Gospel
TTITLE0=SO HEAVENLY MINDED NO EARHLY GOOD
TTITLE1=HOW TO BE BLESSED
TTITLE2=GLORY TO HIS NAME
TTITLE3=YOU, I AND EVERYONE
TTITLE4=WORKERS OF INIQUITY
TTITLE5=LIFTING UP HIS NAME
TTITLE6=SAVED BY HIS GRACE
TTITLE7=THIS MAY BE THE FIRST DAY
TTITLE8=MORE LOVE TO THEE
TTITLE9=THE NEW JERUSALEM
EXTD=
EXTT0=
EXTT1=
EXTT2=
EXTT3=
EXTT4=
EXTT5=
EXTT6=
EXTT7=
EXTT8=
EXTT9=
PLAYORDER=
